<?xml version="1.0" standalone="no"?>
<!DOCTYPE svg PUBLIC "-//W3C//DTD SVG 20010904//EN"
 "http://www.w3.org/TR/2001/REC-SVG-20010904/DTD/svg10.dtd">
<svg version="1.0" xmlns="http://www.w3.org/2000/svg"
 width="512.000000pt" height="512.000000pt" viewBox="0 0 512.000000 512.000000"
 preserveAspectRatio="xMidYMid meet">

<g transform="translate(0.000000,512.000000) scale(0.100000,-0.100000)"
fill="#493e36" stroke="none">
<path d="M705 5106 c-37 -17 -80 -62 -94 -99 -8 -20 -11 -684 -11 -2181 0
-2152 0 -2152 20 -2174 27 -29 80 -29 106 -1 19 21 19 75 24 2168 l5 2146
1805 0 1805 0 3 -730 2 -731 -247 -349 c-136 -193 -255 -365 -264 -383 -29
-56 3 -113 63 -112 13 0 30 6 39 13 8 7 102 136 209 287 106 151 195 277 197
279 1 2 3 -202 3 -455 l0 -460 -761 -1087 -761 -1087 -324 0 c-178 0 -324 3
-324 6 0 3 363 521 807 1152 464 659 809 1158 811 1174 3 19 -3 34 -21 52 -32
32 -68 33 -101 3 -13 -12 -399 -554 -856 -1205 l-832 -1182 -626 2 -627 3 -5
135 c-3 74 -9 142 -13 152 -21 43 -103 43 -126 -1 -16 -30 -14 -294 3 -334 17
-43 78 -95 118 -102 18 -3 853 -4 1855 -3 l1821 3 39 31 c21 17 46 46 55 65
17 32 18 170 18 2457 0 2035 -2 2428 -14 2455 -16 39 -61 82 -99 96 -20 8
-586 11 -1850 11 -1500 -1 -1827 -3 -1852 -14z m3665 -3204 l0 -158 -553 -795
-553 -794 -117 -3 -116 -3 667 955 c367 525 668 955 670 955 1 1 2 -70 2 -157z
m-5 -1739 c-3 -10 -105 -13 -460 -13 -250 0 -455 2 -455 5 0 2 206 300 458
662 l457 657 3 -650 c1 -357 0 -655 -3 -661z"/>
<path d="M2233 4763 c-50 -10 -70 -86 -33 -123 20 -20 33 -20 724 -20 l705 0
20 26 c27 35 26 57 -3 91 l-24 28 -684 1 c-375 1 -693 -1 -705 -3z"/>
<path d="M1341 4741 c-26 -26 -28 -82 -3 -103 9 -9 42 -23 73 -32 83 -23 149
-106 149 -186 0 -61 -54 -146 -109 -174 -128 -64 -281 28 -281 170 0 25 8 68
17 95 17 47 17 49 -3 76 -47 63 -121 33 -149 -61 -35 -119 -9 -246 70 -333
151 -169 413 -154 540 31 94 138 79 312 -38 434 -53 55 -125 92 -192 99 -44 5
-56 2 -74 -16z"/>
<path d="M1906 4359 c-34 -27 -36 -79 -4 -109 22 -20 30 -20 870 -20 l849 0
24 25 c14 13 25 31 25 39 0 28 -22 64 -47 75 -17 8 -268 11 -857 11 -828 0
-833 0 -860 -21z"/>
<path d="M3082 3551 c-143 -55 -159 -59 -255 -63 -117 -5 -161 -22 -219 -86
-116 -128 -77 -328 79 -401 l49 -23 23 -96 c12 -54 27 -110 33 -125 29 -76
139 -56 138 26 -1 17 -9 67 -19 110 l-18 77 21 0 c11 0 86 -25 166 -55 159
-60 197 -66 226 -34 18 20 19 43 22 337 2 215 -1 324 -8 343 -11 25 -47 50
-73 48 -7 0 -81 -26 -165 -58z m98 -321 c0 -104 -2 -190 -4 -190 -2 0 -41 14
-85 31 l-82 31 3 131 3 131 70 27 c39 15 76 28 83 28 9 1 12 -43 12 -189z
m-322 3 c-3 -122 -6 -125 -88 -103 -72 19 -104 107 -59 164 27 34 52 45 107
45 l43 1 -3 -107z"/>
<path d="M1200 3580 c-25 -25 -26 -71 -1 -101 l19 -24 538 -3 c373 -2 547 1
565 8 25 11 49 46 49 74 0 7 -9 25 -21 40 l-20 26 -555 0 c-541 0 -554 0 -574
-20z"/>
<path d="M3506 3555 c-27 -7 -56 -21 -63 -31 -19 -26 -16 -68 6 -95 24 -29 81
-30 137 -3 35 17 39 24 42 60 5 66 -39 91 -122 69z"/>
<path d="M3473 3300 c-44 -18 -57 -86 -23 -120 27 -27 127 -28 161 -2 33 27
30 78 -5 109 -29 24 -89 30 -133 13z"/>
<path d="M1223 3210 c-44 -18 -57 -86 -23 -120 20 -20 33 -20 574 -20 l555 0
20 26 c27 35 26 57 -3 91 l-24 28 -539 2 c-298 1 -548 -2 -560 -7z"/>
<path d="M3452 3037 c-17 -18 -23 -34 -20 -57 4 -43 39 -69 104 -76 66 -8 97
17 92 73 -4 46 -37 71 -103 79 -44 5 -53 3 -73 -19z"/>
<path d="M1206 2809 c-34 -27 -36 -77 -3 -107 l23 -22 548 0 547 0 26 26 c20
20 24 31 19 57 -13 70 12 67 -591 67 -533 0 -543 0 -569 -21z"/>
<path d="M1200 2030 c-25 -25 -26 -71 -1 -101 l19 -24 902 0 902 0 24 28 c29
34 30 56 3 91 l-20 26 -905 0 c-891 0 -904 0 -924 -20z"/>
<path d="M1223 1660 c-44 -18 -57 -86 -23 -120 20 -20 33 -20 824 -20 l805 0
20 26 c12 15 21 33 21 40 0 26 -23 62 -47 73 -29 14 -1566 15 -1600 1z"/>
<path d="M1206 1259 c-34 -27 -36 -77 -3 -107 l23 -22 648 0 647 0 26 26 c20
20 24 31 19 57 -3 18 -16 40 -27 50 -20 16 -67 17 -664 17 -635 0 -643 0 -669
-21z"/>
<path d="M1202 870 c-32 -30 -30 -82 4 -109 26 -21 36 -21 510 -21 333 0 491
3 507 11 25 11 47 47 47 75 0 8 -11 26 -25 39 l-24 25 -499 0 c-488 0 -499 0
-520 -20z"/>
<path d="M1200 480 c-25 -25 -26 -71 -1 -101 l19 -24 402 0 402 0 24 28 c29
34 30 56 3 91 l-20 26 -405 0 c-391 0 -405 -1 -424 -20z"/>
</g>
</svg>
