<?xml version="1.0" encoding="UTF-8"?> <svg xmlns="http://www.w3.org/2000/svg" width="339.044" height="113.87" viewBox="0 0 339.044 113.87"><g id="Group_290" data-name="Group 290" transform="translate(677 -461)"><path id="fullLogo" d="M240.391,126.881a9.918,9.918,0,0,1,.109,1.633,18.342,18.342,0,0,1-31.274,12.9,18.329,18.329,0,0,1-5.292-13.467,18.378,18.378,0,0,1,18.609-18.773,18.418,18.418,0,0,1,8.176,1.864,17.9,17.9,0,0,1,6.38,5.156v.353l-2.666,2.2h-.354a14.307,14.307,0,0,0-11.59-5.9,13.877,13.877,0,0,0-10.3,4.244,14.828,14.828,0,0,0-4.176,10.855,15.013,15.013,0,0,0,4.067,10.9,13.654,13.654,0,0,0,10.243,4.2,13.918,13.918,0,0,0,10.42-4.326,12.074,12.074,0,0,0,3.564-8.6H222.434v-3.564h17.6Z" transform="translate(-761.145 413.087)" fill="#fff"></path><path id="fullLogo-2" data-name="fullLogo" d="M300.953,142.921v3.564H278.97V110.273h4v32.648Z" transform="translate(-789.833 412.663)" fill="#fff"></path><path id="fullLogo-3" data-name="fullLogo" d="M353.492,141.357a19.921,19.921,0,0,1-27.247,0,19.1,19.1,0,0,1,0-26.812,19.958,19.958,0,0,1,27.247,0,19.133,19.133,0,0,1,0,26.812Zm-24.377-2.571a15.708,15.708,0,0,0,21.507,0,15.8,15.8,0,0,0,0-21.67,15.672,15.672,0,0,0-21.507,0,15.841,15.841,0,0,0,0,21.67Z" transform="translate(-805.804 413.084)" fill="#fff"></path><path id="fullLogo-4" data-name="fullLogo" d="M419.587,127.549A10.149,10.149,0,0,1,424.348,131a8.869,8.869,0,0,1,1.741,5.441,8.693,8.693,0,0,1-3.645,7.278q-3.646,2.762-9.6,2.762H399.754V110.273h12.515q12.134,0,12.161,9.631A8.126,8.126,0,0,1,419.587,127.549Zm-6.8-13.712h-9.033v12.379h9.033a8.594,8.594,0,0,0,5.591-1.619,5.6,5.6,0,0,0,1.973-4.584Q420.376,113.837,412.786,113.837Zm.054,29.084q9.2,0,9.2-6.693a6.037,6.037,0,0,0-2.231-4.911,9,9,0,0,0-5.9-1.836H403.753v13.44Z" transform="translate(-836.012 412.663)" fill="#fff"></path><path id="fullLogo-5" data-name="fullLogo" d="M470.364,110.273l16.7,35.885-.163.326H482.96l-3.755-8.189h-19.67l-3.782,8.189h-3.836l-.163-.326,16.814-35.885Zm-9.2,24.459h16.378l-8.135-17.9Z" transform="translate(-855.893 412.663)" fill="#fff"></path><path id="fullLogo-6" data-name="fullLogo" d="M545.294,142.921v3.564H523.311V110.273h4v32.648Z" transform="translate(-883.25 412.663)" fill="#fff"></path><path id="fullLogo-7" data-name="fullLogo" d="M245.594,64.212h-3.727l-2.721-26.145L227.04,64.212h-1.768L213.382,38.148l-2.721,26.064h-3.727L210.879,28h1.8l13.467,29.873L239.854,28h1.8Z" transform="translate(-762.292 444.118)" fill="#fff"></path><path id="fullLogo-8" data-name="fullLogo" d="M433.479,45.766l13.277,18.119-.19.326H442.13L430.867,48.786,419.658,64.212h-4.217l-.19-.326,13.386-17.956-12.542-17.6.163-.327h4.462l10.474,14.828L441.777,28h4.244l.163.327Z" transform="translate(-841.936 444.118)" fill="#fff"></path><path id="fullLogo-9" data-name="fullLogo" d="M299.158,28h-1.8L280.549,63.885l.163.327h3.836l13.657-29.655,13.549,29.655H315.7l.163-.327Z" transform="translate(-790.437 444.118)" fill="#fff"></path><path id="fullLogo-10" data-name="fullLogo" d="M366.935,28h-1.8L348.326,63.885l.163.327h3.836l13.658-29.655,13.549,29.655h3.945l.163-.327Z" transform="translate(-816.35 444.118)" fill="#fff"></path><path id="fullLogo-11" data-name="fullLogo" d="M120.527,97.611a2.1,2.1,0,0,1-2.1-2.1V12.1a2.1,2.1,0,0,1,2.1-2.1h8.4a2.1,2.1,0,1,1,0,4.205h-6.3v81.3a2.1,2.1,0,0,1-2.1,2.1Z" transform="translate(-719.806 451)" fill="#e8c223"></path><path id="fullLogo-12" data-name="fullLogo" d="M85.319,116.382a2.1,2.1,0,0,1-2.1-2.1V44.245a2.1,2.1,0,1,1,4.205,0v70.035a2.1,2.1,0,0,1-2.1,2.1Z" transform="translate(-714.992 438.711)" fill="#e8c223"></path><path id="fullLogo-13" data-name="fullLogo" d="M104.524,145.885a2.1,2.1,0,0,1-2.1-2.1v-72h-6.3a2.1,2.1,0,1,1,0-4.205h8.4a2.1,2.1,0,0,1,2.1,2.1v70.01l5.076-3.63a2.1,2.1,0,1,1,2.446,3.421l-8.4,6.008A2.1,2.1,0,0,1,104.524,145.885Z" transform="translate(-719.122 428.986)" fill="#e8c223"></path><path id="fullLogo-14" data-name="fullLogo" d="M12.1,97.611a2.1,2.1,0,0,1-2.1-2.1V12.1A2.1,2.1,0,0,1,12.1,10h8.4a2.1,2.1,0,1,1,0,4.205h-6.3v81.3a2.1,2.1,0,0,1-2.1,2.1Z" transform="translate(-687 451)" fill="#e8c223"></path><path id="fullLogo-15" data-name="fullLogo" d="M31.308,140.124a2.1,2.1,0,0,1-1.223-.392l-8.4-6.008a2.1,2.1,0,1,1,2.446-3.421l5.076,3.63V54.616a2.1,2.1,0,1,1,4.205,0v83.405a2.1,2.1,0,0,1-2.1,2.1Z" transform="translate(-691.13 434.746)" fill="#e8c223"></path><path id="fullLogo-16" data-name="fullLogo" d="M55.713,134.275a2.1,2.1,0,0,1-2.1-2.1V93.148h-6.3a2.1,2.1,0,1,1,0-4.205h8.4a2.1,2.1,0,0,1,2.1,2.1v41.127a2.1,2.1,0,0,1-2.1,2.1Z" transform="translate(-700.461 420.818)" fill="#e8c223"></path></g></svg> 