<svg id="Layer_1" data-name="Layer 1" xmlns="http://www.w3.org/2000/svg" viewBox="0 0 486.05 592.5"><defs><style>.cls-1{fill:#493e36;}</style></defs><title>paperwork</title><path class="cls-1" d="M139,100.5h287a66,66,0,0,1,6.27,5Q488.48,161.62,544.5,218a19.15,19.15,0,0,1,5,12.15q.39,190.5.18,381c0,20.43-15,35.32-35.4,35.55-3.56,0-7.13,0-10.85,0,0,3.44-.09,5.94,0,8.44.44,10.52-2.14,20.34-10.16,27.21C488,687,480.87,689.52,474.55,693H92.66c-1.06-.4-2.1-.88-3.19-1.2C73.9,687.26,63.78,674.25,63.77,658q-.08-238.1,0-476.19c0-20,15.2-34.8,35.35-35,3.57,0,7.14,0,10.89,0,0-3.41.09-5.92,0-8.41a36.49,36.49,0,0,1,8-25.31C123.47,106.29,131,103,139,100.5ZM526.62,239.37h-7q-35.86,0-71.74,0c-22.36,0-37-14.6-37-36.9q-.06-36.15,0-72.32v-6.2c-1.48-.14-2.23-.28-3-.28q-131.05,0-262.1,0c-8,0-12.52,4.62-12.63,12.6-.13,8.48,0,17,0,25.46,0,21.6,0,43.2,0,64.8,0,7.54-4.68,12.63-11.29,12.78-6.82.16-11.66-5.07-11.81-12.85-.08-3.86,0-7.72,0-11.58V170.15c-1.63-.09-2.74-.19-3.84-.21-16.52-.32-19.3,2.38-19.3,18.72V653.84c0,12.59,3.47,16,16.23,16h361a48.36,48.36,0,0,0,5.78-.12,11.29,11.29,0,0,0,10.23-10.16c.37-4.14.08-8.33.08-12.86H148.74c-24.68,0-38.71-14-38.72-38.68V336.67q0-16,11.31-16.26c7.75-.18,11.84,5.46,11.84,16.32V607.51c0,12.63,3.45,16.06,16.19,16.06H509.81c13.56,0,16.81-3.22,16.81-16.61V239.37ZM434.05,141c0,20.9,0,41.06,0,61.22,0,9.81,4.24,14,14.1,14q28.29.06,56.59,0a39.26,39.26,0,0,0,4.17-.42Z" transform="translate(-63.73 -100.5)"/><path class="cls-1" d="M283.52,216.22h88.42a41.12,41.12,0,0,1,5.77.16,11.5,11.5,0,0,1,.16,22.79,28.32,28.32,0,0,1-4.61.18H194.11c-1,0-1.93,0-2.89,0-6.93-.4-11.84-5.33-11.72-11.76.11-6.2,4.9-10.92,11.56-11.32,1.53-.1,3.08,0,4.62,0Z" transform="translate(-63.73 -100.5)"/><path class="cls-1" d="M283.31,351.91H195.94a56.16,56.16,0,0,1-6.36-.18,11.34,11.34,0,0,1-1.93-22.15,32,32,0,0,1,8-.78q87.95-.06,175.89,0a32,32,0,0,1,8,.78,11.32,11.32,0,0,1-1.95,22.13,89.13,89.13,0,0,1-9.25.2Z" transform="translate(-63.73 -100.5)"/><path class="cls-1" d="M270.44,520.86c-25.61,0-51.23.11-76.84-.13-3.43,0-7.51-.94-10.12-3-6.85-5.28-4.61-16.26,3.6-19.1a21.27,21.27,0,0,1,6.81-.91q76.85-.08,153.69,0c.77,0,1.54,0,2.31,0,7.46.44,12.46,5.21,12.38,11.78s-5,11.27-12.67,11.3c-24.84.1-49.69,0-74.53,0Z" transform="translate(-63.73 -100.5)"/><path class="cls-1" d="M265.65,554.13q36.71,0,73.39,0c6.85,0,11.44,3.23,12.74,8.64,1.82,7.56-3.34,14.22-11.52,14.43-8.86.22-17.72.06-26.58.06H196.37c-1.54,0-3.09,0-4.62,0-7.33-.29-12.4-5.2-12.25-11.82.14-6.41,5.1-11.17,12.19-11.26,11-.15,21.95,0,32.93,0Z" transform="translate(-63.73 -100.5)"/><path class="cls-1" d="M237,183c-14.66,0-29.31.05-44,0-8.49,0-13.65-4.55-13.55-11.61.09-6.76,5.25-11.44,13.26-11.47q44.57-.14,89.11,0c8,0,13.17,4.71,13.26,11.48.1,7-5.08,11.56-13.56,11.6C266.72,183,251.87,183,237,183Z" transform="translate(-63.73 -100.5)"/><path class="cls-1" d="M237.83,385.18c14.43,0,28.87,0,43.3,0,8.74,0,14.15,4.61,14,11.77-.14,7-5.41,11.34-13.87,11.35q-43.87,0-87.76,0c-8.74,0-14.14-4.62-14-11.79.13-7,5.39-11.31,13.87-11.33C208.19,385.15,223,385.18,237.83,385.18Z" transform="translate(-63.73 -100.5)"/><path class="cls-1" d="M237.73,441.6c14.66,0,29.32-.06,44,0,8.25,0,13.24,4.27,13.43,11.14s-5.14,11.91-13.4,11.94q-44.55.14-89.11,0c-8,0-13.12-4.84-13.13-11.61,0-6.93,5-11.41,13.1-11.46C207.65,441.53,222.69,441.6,237.73,441.6Z" transform="translate(-63.73 -100.5)"/><path class="cls-1" d="M121.51,291.4a11.53,11.53,0,1,1,11.61-11.17A11.65,11.65,0,0,1,121.51,291.4Z" transform="translate(-63.73 -100.5)"/></svg>